<svg id="Capa_1" data-name="Capa 1" xmlns="http://www.w3.org/2000/svg" viewBox="0 0 146.28 85.87"><defs><style>.cls-1{fill:#fff;}.cls-2{fill:none;}</style></defs><title>log-2</title><polygon id="_Trazado_" data-name=" Trazado " class="cls-1" points="3.3 53.15 6.47 53.15 3.3 55.02 3.3 53.15"/><path id="_Trazado_2" data-name=" Trazado 2" d="M99.9.88V.79h0L99.8.72h0L99.69.66H1.64C.73.66,0,1.1,0,1.66V58a.58.58,0,0,0,0,.1v.09H0l.1.07h0l.11.06H97.86c.91,0,1.65-.44,1.65-1V1A.58.58,0,0,0,99.9.88Z" transform="translate(0.01 -0.66)"/><polygon id="_Trazado_3" data-name=" Trazado 3" class="cls-1" points="94.3 1.29 88.81 4.53 3.3 4.53 3.3 1.29 94.3 1.29"/><polygon id="_Trazado_4" data-name=" Trazado 4" class="cls-1" points="9.76 51.21 3.3 51.21 3.3 47.97 15.25 47.97 9.76 51.21"/><polygon id="_Trazado_5" data-name=" Trazado 5" class="cls-1" points="18.54 46.02 3.3 46.02 3.3 42.78 24.03 42.78 18.54 46.02"/><polygon id="_Trazado_6" data-name=" Trazado 6" class="cls-1" points="27.33 40.83 3.3 40.83 3.3 37.59 32.82 37.59 27.33 40.83"/><polygon id="_Trazado_7" data-name=" Trazado 7" class="cls-1" points="36.11 35.65 3.3 35.65 3.3 32.41 41.6 32.41 36.11 35.65"/><polygon id="_Trazado_8" data-name=" Trazado 8" class="cls-1" points="44.89 30.46 3.3 30.46 3.3 27.22 50.38 27.22 44.89 30.46"/><polygon id="_Trazado_9" data-name=" Trazado 9" class="cls-1" points="53.68 25.27 3.3 25.27 3.3 22.03 59.17 22.03 53.68 25.27"/><polygon id="_Trazado_10" data-name=" Trazado 10" class="cls-1" points="62.46 20.09 3.3 20.09 3.3 16.84 67.95 16.84 62.46 20.09"/><polygon id="_Trazado_11" data-name=" Trazado 11" class="cls-1" points="71.25 14.9 3.3 14.9 3.3 11.66 76.73 11.66 71.25 14.9"/><polygon id="_Trazado_12" data-name=" Trazado 12" class="cls-1" points="80.03 9.71 3.3 9.71 3.3 6.47 85.52 6.47 80.03 9.71"/><polygon id="_Trazado_13" data-name=" Trazado 13" points="5.63 56.39 96.63 2.66 96.63 56.39 5.63 56.39"/><g id="_Grupo_" data-name=" Grupo "><g id="_Grupo_2" data-name=" Grupo 2"><g id="_Grupo_3" data-name=" Grupo 3"><path id="_Trazado_14" data-name=" Trazado 14" class="cls-2" d="M112.36,24.64c-.22,5.71-.11,11.41-.05,17.12,5.49,0,10.93,0,16.42,0-1.51-5.71-3.34-11.3-4.84-17C120,24.59,116.14,24.64,112.36,24.64Z" transform="translate(0.01 -0.66)"/><path id="_Trazado_15" data-name=" Trazado 15" class="cls-2" d="M117,69.83A3.85,3.85,0,1,0,120.74,73,3.85,3.85,0,0,0,117,69.83Z" transform="translate(0.01 -0.66)"/><path id="_Trazado_16" data-name=" Trazado 16" class="cls-2" d="M18.6,71.48A3.84,3.84,0,0,0,11.68,73a3.93,3.93,0,0,0-.07.7,3.84,3.84,0,1,0,7-2.19Z" transform="translate(0.01 -0.66)"/><path id="_Trazado_17" data-name=" Trazado 17" class="cls-2" d="M132.94,59.33q-.09,3,0,6c3.33.06,6.71.06,10-.06.06-1.95.06-3.9-.06-5.91Q137.93,59.24,132.94,59.33Z" transform="translate(0.01 -0.66)"/><path id="_Trazado_compuesto_" data-name=" Trazado compuesto " d="M117,60.81a12.86,12.86,0,1,0,12.86,12.86A12.86,12.86,0,0,0,117,60.81Zm2.59,15.68a3.84,3.84,0,1,1,1.25-2.85A3.84,3.84,0,0,1,119.56,76.49Z" transform="translate(0.01 -0.66)"/><path id="_Trazado_compuesto_2" data-name=" Trazado compuesto 2" d="M15.48,60.81h-.06a12.85,12.85,0,1,0,.06,0ZM18,76.49a3.84,3.84,0,0,1-6.43-2.82,3.93,3.93,0,0,1,.07-.7A3.84,3.84,0,1,1,18,76.49Z" transform="translate(0.01 -0.66)"/><path id="_Trazado_18" data-name=" Trazado 18" d="M10.84,60.81H0V71.48H2v-.14A13.61,13.61,0,0,1,10.84,60.81Z" transform="translate(0.01 -0.66)"/><path id="_Trazado_compuesto_3" data-name=" Trazado compuesto 3" d="M143.6,64.8c-.05-5.87.11-11.68-.11-17.55l-5.65-2.59c-1.31-.61-2.63-1.23-3.93-1.87a4.38,4.38,0,0,1-.49-.23c-2.67-1.43-2.58-5-3.6-7.57-1.05-4.32-2.79-8.51-3.85-12.82a26.23,26.23,0,0,1-.83-8.39c-7.67-.11-15.29,0-22.91,0h-.07v9.44h0c0,12.52-.13,25.06,0,37.58H20.07a13.61,13.61,0,0,1,8.84,10.53v.14h73.38c1.89-6,6.57-11.74,13.3-12.11C123,58.28,129.91,64,131.52,71.1c4.9.05,9.8.05,14.7.05,0-2,.05-4.15.05-6.19Zm-31.33-23c-.05-5.71-.16-11.41.05-17.12,3.82,0,7.7,0,11.52.11,1.51,5.65,3.34,11.25,4.84,17-5.48,0-10.92,0-16.41,0ZM143,65.27c-3.33.11-6.71.11-10,.06q-.09-3,0-6,5-.09,10,0c.06,2,.06,4,0,5.9Z" transform="translate(0.01 -0.66)"/></g></g></g></svg>